Coordinates
version=1
nRows=23
nColumns=33
inDegrees=yes

Units are S.I. units (second, meters, Newtons, ...)
Angles are in degrees.

endheader
time	ground_thorax_rot_x	ground_thorax_rot_y	ground_thorax_rot_z	ground_thorax_tx	ground_thorax_ty	ground_thorax_tz	clav_prot_r	clav_elev_r	scapula_abduction_r	scapula_elevation_r	scapula_upward_rot_r	scapula_winging_r	shoulder_elv_r	plane_of_elev_r	axial_rot_r	elbow_flexion_r	pro_sup_r	wrist_flex_r	wrist_dev_r	clav_prot_l	clav_elev_l	scapula_abduction_l	scapula_elevation_l	scapula_upward_rot_l	scapula_winging_l	shoulder_elv_l	plane_of_elev_l	axial_rot_l	elbow_flexion_l	pro_sup_l	wrist_flex_l	wrist_dev_l	
6.0500	39.565232	11.024485	13.795349	-248.027523	848.941850	6.339275	12.335626	38.168749	37.086060	45.000000	-36.915816	1709.406509	-2811.449925	33.429060	47.635908	1812.050734	10.821945	19.359232	6.182122	8.321774	-45.000000	-35.760638	45.000000	-45.000000	-2418.768047	437.240131	19.377666	-65.016485	382.579489	143.667992	-0.546717	-9.918567	
6.0600	39.531286	11.045464	13.858914	-247.927579	848.721639	6.375627	12.327730	38.142201	37.065629	45.000000	-36.978070	1709.425795	-2811.474864	33.442960	47.649488	1812.034728	10.770276	19.335582	6.144766	8.262495	-45.000000	-35.740694	45.000000	-45.000000	-2418.777995	437.223625	19.367471	-65.013419	382.545622	143.610271	-0.477818	-9.941805	
6.0700	39.490724	11.082291	13.927353	-247.802884	848.498897	6.410684	12.315586	38.100863	36.997024	45.000000	-37.057776	1709.457071	-2811.495401	33.505823	47.679703	1811.989622	10.709666	19.293891	6.070459	8.156754	-45.000000	-35.735165	45.000000	-45.000000	-2418.805101	437.210211	19.346004	-64.980178	382.488122	143.550309	-0.370777	-9.971928	
6.0800	39.458709	11.104605	13.974538	-247.624933	848.267078	6.442249	12.316737	38.080910	36.968235	45.000000	-37.103447	1709.480294	-2811.510629	33.532235	47.671822	1811.984026	10.629215	19.279034	6.047907	8.113178	-45.000000	-35.739161	45.000000	-45.000000	-2418.825307	437.194951	19.338909	-64.935069	382.476747	143.478630	-0.313163	-9.986381	
6.0900	39.435938	11.116020	14.007169	-247.391520	848.028261	6.470523	12.316306	38.068689	36.969174	45.000000	-37.126050	1709.498152	-2811.525194	33.537760	47.638875	1811.994442	10.530527	19.277369	6.047506	8.102225	-45.000000	-35.740039	45.000000	-45.000000	-2418.845777	437.176671	19.349813	-64.875545	382.481832	143.397647	-0.282720	-9.997081	
6.1000	39.412134	11.134235	14.039595	-247.096688	847.783164	6.495278	12.322253	38.064855	36.971238	45.000000	-37.132911	1709.516445	-2811.533977	33.539700	47.592776	1812.014090	10.415921	19.284400	6.060769	8.102637	-45.000000	-35.753222	45.000000	-45.000000	-2418.869588	437.161961	19.363217	-64.784991	382.500502	143.310820	-0.261632	-9.999511	
6.1100	39.395946	11.144288	14.064516	-246.741859	847.534348	6.516721	12.321120	38.064384	36.997924	45.000000	-37.114402	1709.528274	-2811.545119	33.527241	47.529457	1812.038039	10.289955	19.299230	6.083657	8.124162	-45.000000	-35.754116	45.000000	-45.000000	-2418.895823	437.143130	19.395984	-64.680428	382.517530	143.222341	-0.260237	-10.002961	
6.1200	39.374390	11.170551	14.100502	-246.330929	847.284763	6.535064	12.321309	38.067196	37.007482	45.000000	-37.085742	1709.543728	-2811.551094	33.523732	47.471047	1812.056036	10.161004	19.313946	6.101859	8.132945	-45.000000	-35.764335	45.000000	-44.999999	-2418.928656	437.129033	19.425447	-64.543621	382.530853	143.141198	-0.250520	-10.001421	
6.1300	39.358882	11.193132	14.131861	-245.867065	847.036717	6.550203	12.312954	38.070772	37.021559	45.000000	-37.029511	1709.557079	-2811.557514	33.517257	47.405556	1812.071535	10.034819	19.332401	6.122060	8.156738	-45.000000	-35.770060	45.000000	-44.999998	-2418.965569	437.111795	19.468652	-64.398259	382.537840	143.074233	-0.256038	-10.001169	
6.1400	39.338458	11.231031	14.171381	-245.350934	846.791251	6.561866	12.306136	38.080387	37.005811	45.000000	-36.960277	1709.579224	-2811.554622	33.527117	47.350195	1812.081006	9.918359	19.350854	6.141877	8.170961	-45.000000	-35.797215	45.000000	-44.999997	-2419.010084	437.099641	19.503357	-64.225167	382.545500	143.031725	-0.254728	-9.992889	
6.1500	39.324773	11.263253	14.203778	-244.781479	846.548197	6.569661	12.286634	38.088637	36.990345	45.000000	-36.862954	1709.604542	-2811.551648	33.535078	47.289720	1812.087364	9.812829	19.371010	6.161826	8.200005	-45.000000	-35.827000	45.000000	-44.999995	-2419.060099	437.083529	19.548737	-64.046680	382.550127	143.020531	-0.267678	-9.985635	
6.1600	39.311826	11.302104	14.239954	-244.155262	846.305442	6.573177	12.262060	38.103997	36.968638	45.000000	-36.752066	1709.635659	-2811.544484	33.542030	47.236098	1812.094763	9.720026	19.393012	6.188059	8.225677	-45.000000	-35.871138	45.000000	-44.999991	-2419.116461	437.070756	19.592326	-63.846971	382.563830	143.049695	-0.278847	-9.969839	
6.1700	39.306405	11.335733	14.270297	-243.467356	846.059094	6.572039	12.227871	38.118298	36.954583	45.000000	-36.617506	1709.667525	-2811.541842	33.542589	47.177965	1812.102330	9.635234	19.415825	6.217515	8.261981	-45.000000	-35.916293	45.000000	-44.999985	-2419.180424	437.056071	19.647887	-63.642616	382.579635	143.125409	-0.301832	-9.953929	
6.1800	39.305515	11.365134	14.302240	-242.711010	845.803079	6.566000	12.191887	38.141760	36.962703	45.000000	-36.469927	1709.692048	-2811.549041	33.535774	47.122999	1812.112276	9.552798	19.439752	6.259679	8.293830	-45.000000	-35.954322	45.000000	-44.999972	-2419.252683	437.042608	19.709649	-63.420966	382.596478	143.256397	-0.322942	-9.931938	
6.1900	39.310600	11.389194	14.333678	-241.879166	845.530269	6.554901	12.154567	38.166308	36.994509	45.000000	-36.301741	1709.709790	-2811.570175	33.516909	47.063960	1812.121892	9.460931	19.462783	6.310165	8.328896	-45.000000	-35.978969	45.000000	-44.999950	-2419.333719	437.026174	19.783590	-63.194551	382.609651	143.447569	-0.351423	-9.910278	
6.2000	39.321128	11.406956	14.369693	-240.964683	845.232990	6.538668	12.123943	38.202002	37.056352	45.000000	-36.120594	1709.714293	-2811.608497	33.493545	47.007708	1812.129878	9.347573	19.484735	6.379454	8.354751	-45.000000	-35.987954	45.000000	-44.999911	-2419.425605	437.008484	19.862694	-62.956145	382.619948	143.706331	-0.377951	-9.884344	
6.2100	39.334162	11.429867	14.412845	-239.960841	844.903736	6.517289	12.099610	38.242301	37.123868	45.000000	-35.921757	1709.718718	-2811.656602	33.466308	46.951090	1812.133169	9.197782	19.503855	6.465174	8.376619	-45.000000	-35.997021	45.000000	-44.999841	-2419.529131	436.988285	19.943544	-62.714096	382.631557	144.035597	-0.409039	-9.856876	
6.2200	39.354217	11.441661	14.457729	-238.861587	844.535663	6.490762	12.100211	38.299978	37.219858	45.000000	-35.709718	1709.698956	-2811.728805	33.456406	46.901619	1812.125770	8.995562	19.518271	6.574848	8.375227	-45.000000	-35.990067	45.000000	-44.999715	-2419.651203	436.966642	20.022342	-62.464189	382.641311	144.446210	-0.439424	-9.826107	
6.2300	39.377074	11.455960	14.507533	-237.661813	844.122810	6.459047	12.123231	38.368863	37.318453	45.000000	-35.482311	1709.668956	-2811.815163	33.463851	46.858524	1812.107254	8.726296	19.526763	6.706288	8.356280	-45.000000	-35.982745	45.000000	-44.999489	-2419.791193	436.942977	20.097222	-62.213595	382.655734	144.941119	-0.473069	-9.792580	
6.2400	39.404248	11.464688	14.559877	-236.357207	843.659942	6.421996	12.169931	38.452944	37.432434	45.000000	-35.242863	1709.620355	-2811.920887	33.494070	46.822934	1812.076928	8.380154	19.528414	6.863385	8.315904	-45.000000	-35.967953	45.000000	-44.999084	-2419.950583	436.916336	20.168365	-61.961175	382.672802	145.523906	-0.507156	-9.755419	
6.2500	39.429686	11.487322	14.621779	-234.944320	843.142301	6.379327	12.219707	38.540217	37.535724	45.000000	-34.990538	1709.579477	-2812.029136	33.526704	46.788908	1812.041581	7.955757	19.523730	7.042539	8.273290	-45.000000	-35.963133	45.000000	-44.998360	-2420.121846	436.885348	20.238403	-61.711020	382.697062	146.186278	-0.544011	-9.714775	
6.2600	39.454909	11.514491	14.691578	-233.420086	842.565147	6.330618	12.267593	38.629114	37.646110	45.000000	-34.726062	1709.540658	-2812.145883	33.557348	46.752990	1812.001136	7.459554	19.511427	7.241615	8.230737	-45.000000	-35.955269	45.000000	-44.997062	-2420.303743	436.847279	20.310330	-61.462602	382.719050	146.920239	-0.582883	-9.672833	
6.2700	39.473742	11.564141	14.779587	-231.782319	841.923758	6.275406	12.288249	38.706828	37.739344	45.000000	-34.448236	1709.531835	-2812.253183	33.565341	46.706748	1811.962059	6.908357	19.492056	7.455679	8.209916	-45.000000	-35.961160	45.000000	-44.994741	-2420.486814	436.800584	20.387024	-61.219631	382.739348	147.705331	-0.624515	-9.630042	
